<svg width="152" height="38" viewBox="0 0 152 38" fill="none" xmlns="http://www.w3.org/2000/svg">
<path d="M31.24 11.96C31.24 13.24 30.9467 14.4533 30.36 15.6C29.8 16.72 29.0133 17.7333 28 18.64C26.9867 19.52 25.8 20.2667 24.44 20.88C23.08 21.4933 21.6 21.9067 20 22.12C20.4 23.32 20.88 24.56 21.44 25.84C22.0267 27.0933 22.6533 28.3067 23.32 29.48C23.9867 30.6533 24.68 31.7333 25.4 32.72C26.12 33.7067 26.8267 34.52 27.52 35.16C27.3867 35.4267 27.1867 35.6933 26.92 35.96C26.68 36.2267 26.3867 36.4667 26.04 36.68C25.72 36.92 25.3733 37.1067 25 37.24C24.6533 37.4 24.32 37.48 24 37.48C23.4133 37.48 22.8533 37.2 22.32 36.64C21.7867 36.08 21.24 35.2 20.68 34C20.1467 32.7733 19.5733 31.2 18.96 29.28C18.3733 27.3333 17.72 25 17 22.28C16.7067 22.28 16.4133 22.28 16.12 22.28C15.8267 22.28 15.6 22.2533 15.44 22.2C15.2533 22.0933 15.0533 21.9067 14.84 21.64C14.12 23.1867 13.48 24.64 12.92 26C12.36 27.36 11.8533 28.68 11.4 29.96C10.9733 31.2133 10.5867 32.44 10.24 33.64C9.92 34.8133 9.64 36.0133 9.4 37.24C8.49333 37.0267 7.70667 36.64 7.04 36.08C6.37333 35.52 5.74667 34.7333 5.16 33.72C5.26667 33.48 5.37333 33.2533 5.48 33.04C5.61333 32.8 5.77333 32.48 5.96 32.08C6.14667 31.6533 6.37333 31.12 6.64 30.48C6.93333 29.84 7.30667 28.9867 7.76 27.92C8.24 26.8533 8.8 25.5467 9.44 24C10.1067 22.4533 10.9067 20.5733 11.84 18.36C12.2667 17.3733 12.6267 16.5067 12.92 15.76C13.24 15.0133 13.52 14.3067 13.76 13.64C14 12.9467 14.2133 12.2667 14.4 11.6C14.6133 10.9067 14.8267 10.12 15.04 9.24C13.8133 9.66667 12.6667 10.1467 11.6 10.68C10.56 11.1867 9.69333 11.7333 9 12.32C8.76 12.16 8.50667 11.92 8.24 11.6C8 11.28 7.77333 10.9333 7.56 10.56C7.34667 10.16 7.16 9.76 7 9.36C6.84 8.96 6.74667 8.6 6.72 8.28C7.52 7.74667 8.49333 7.25333 9.64 6.8C10.8133 6.34667 12.0533 5.96 13.36 5.64C14.6667 5.29333 16 5.02666 17.36 4.84C18.72 4.65333 19.9867 4.56 21.16 4.56C24.36 4.56 26.84 5.22666 28.6 6.56C30.36 7.86667 31.24 9.66667 31.24 11.96ZM21.48 8.6C21.2933 8.84 21 9.32 20.6 10.04C20.2 10.76 19.7333 11.6267 19.2 12.64C18.6933 13.6267 18.1467 14.7067 17.56 15.88C17 17.0533 16.4533 18.2133 15.92 19.36C17.92 19.36 19.76 19.1733 21.44 18.8C23.12 18.4267 24.5733 17.9067 25.8 17.24C27.0267 16.5467 27.9733 15.7467 28.64 14.84C29.3333 13.9067 29.68 12.88 29.68 11.76C29.68 10.4267 29.2 9.41333 28.24 8.72C27.28 8 25.8 7.64 23.8 7.64C23.3467 7.64 22.8933 7.66667 22.44 7.72C21.9867 7.74667 21.5067 7.78667 21 7.84L21.48 8.6ZM44.1766 17.44C44.0699 19.0933 43.7766 20.52 43.2966 21.72C42.8166 22.8933 42.1232 23.9333 41.2166 24.84C40.3366 25.72 39.2566 26.52 37.9766 27.24C36.6966 27.96 35.2032 28.6533 33.4966 29.32C33.4966 29.48 33.4832 29.6533 33.4566 29.84C33.4566 30 33.4566 30.1733 33.4566 30.36C33.4566 30.7067 33.4832 31.0667 33.5366 31.44C33.5899 31.8133 33.6832 32.16 33.8166 32.48C33.9499 32.8 34.1366 33.0667 34.3766 33.28C34.6166 33.4667 34.9232 33.56 35.2966 33.56C36.0166 33.56 36.7232 33.4 37.4166 33.08C38.1099 32.76 38.7632 32.3733 39.3766 31.92C40.0166 31.44 40.6032 30.9333 41.1366 30.4C41.6966 29.84 42.1899 29.3333 42.6166 28.88C42.8832 29.12 43.1099 29.3467 43.2966 29.56C42.0966 31.16 40.7766 32.4933 39.3366 33.56C37.9232 34.6 36.5766 35.2667 35.2966 35.56C33.4566 35.3467 32.0166 34.68 30.9766 33.56C29.9632 32.4133 29.4566 31.04 29.4566 29.44C29.4566 28.3467 29.6032 27.24 29.8966 26.12C30.2166 24.9733 30.6432 23.88 31.1766 22.84C31.7366 21.7733 32.3766 20.7733 33.0966 19.84C33.8432 18.9067 34.6299 18.0933 35.4566 17.4C36.3099 16.7067 37.1766 16.16 38.0566 15.76C38.9632 15.36 39.8566 15.16 40.7366 15.16C41.9632 15.32 43.1099 16.08 44.1766 17.44ZM41.4166 18.76C40.6966 18.8667 39.9499 19.16 39.1766 19.64C38.4032 20.12 37.6699 20.76 36.9766 21.56C36.3099 22.36 35.6966 23.2933 35.1366 24.36C34.5766 25.4267 34.1366 26.5733 33.8166 27.8C35.9499 26.7333 37.7232 25.4267 39.1366 23.88C40.5499 22.3067 41.3099 20.6 41.4166 18.76ZM59.8284 17.84C60.0951 17.84 60.4018 17.8933 60.7484 18C61.1218 18.08 61.4551 18.2 61.7484 18.36C62.0418 18.4933 62.2818 18.64 62.4684 18.8C62.6818 18.96 62.7884 19.1067 62.7884 19.24C62.2551 20.36 61.7618 21.4933 61.3084 22.64C60.8551 23.76 60.4684 24.84 60.1484 25.88C59.8284 26.92 59.5751 27.8933 59.3884 28.8C59.2284 29.7067 59.1484 30.4933 59.1484 31.16C59.1484 31.9067 59.2284 32.5333 59.3884 33.04C59.5484 33.52 59.8151 33.8667 60.1884 34.08C59.8684 34.2933 59.4551 34.4667 58.9484 34.6C58.4418 34.7333 57.9884 34.8 57.5884 34.8C56.1484 34.8 55.4284 33.8133 55.4284 31.84C55.4284 30.32 55.9351 28.24 56.9484 25.6C56.4151 26.8267 55.8018 27.9867 55.1084 29.08C54.4151 30.1467 53.7084 31.0933 52.9884 31.92C52.2684 32.7467 51.5351 33.4267 50.7884 33.96C50.0684 34.4667 49.4018 34.7733 48.7884 34.88C47.8018 34.8267 47.0018 34.36 46.3884 33.48C45.7751 32.5733 45.4684 31.4267 45.4684 30.04C45.4684 28.5467 45.7884 26.9733 46.4284 25.32C47.0684 23.6667 47.8818 22.1333 48.8684 20.72C49.8818 19.3067 50.9751 18.1333 52.1484 17.2C53.3218 16.24 54.4551 15.7333 55.5484 15.68C55.8151 15.76 56.1084 15.92 56.4284 16.16C56.7751 16.4 57.0951 16.68 57.3884 17C57.7084 17.32 57.9751 17.6533 58.1884 18C58.4018 18.32 58.5218 18.6 58.5484 18.84C57.4818 19 56.3751 19.52 55.2284 20.4C54.1084 21.28 53.0818 22.3467 52.1484 23.6C51.2418 24.8267 50.4951 26.1467 49.9084 27.56C49.3218 28.9733 49.0284 30.2933 49.0284 31.52C49.0284 32.0267 49.2151 32.3467 49.5884 32.48C50.3618 32.32 51.2551 31.6667 52.2684 30.52C53.2818 29.3467 54.5084 27.5467 55.9484 25.12C56.2151 24.64 56.5084 24.1067 56.8284 23.52C57.1751 22.9333 57.5218 22.32 57.8684 21.68C58.2151 21.04 58.5484 20.4 58.8684 19.76C59.2151 19.0933 59.5351 18.4533 59.8284 17.84ZM64.7775 31.44C64.7775 30.2667 65.0575 28.6267 65.6175 26.52C66.1775 24.3867 66.9642 21.9067 67.9775 19.08C69.6308 14.5733 71.1775 10.8267 72.6175 7.84C74.0842 4.82667 75.5108 2.48 76.8975 0.799998C77.2175 0.853331 77.6042 0.986664 78.0575 1.2C78.5375 1.41333 79.0042 1.65333 79.4575 1.92C79.9108 2.16 80.3108 2.41333 80.6575 2.68C81.0308 2.94666 81.2708 3.16 81.3775 3.32C79.2975 5.77333 77.4708 8.41333 75.8975 11.24C74.3242 14.0667 72.8842 17.3067 71.5775 20.96C70.4575 24.1067 69.6042 26.9467 69.0175 29.48C68.4308 31.9867 68.1375 34.08 68.1375 35.76C68.1375 36.2133 68.1375 36.4933 68.1375 36.6C68.1375 36.7067 68.1508 36.8133 68.1775 36.92C67.8042 36.8667 67.4842 36.7733 67.2175 36.64C66.9508 36.5067 66.7775 36.3467 66.6975 36.16C66.6442 36.0267 66.4975 35.8267 66.2575 35.56C66.0175 35.32 65.8042 35.1333 65.6175 35C65.3775 34.84 65.1775 34.4267 65.0175 33.76C64.8575 33.0667 64.7775 32.2933 64.7775 31.44ZM75.6019 26.16C75.6019 24.2933 75.8152 22.4667 76.2419 20.68C76.6952 18.8667 77.3219 17.16 78.1219 15.56C78.9219 13.9333 79.8685 12.4533 80.9619 11.12C82.0819 9.76 83.2952 8.58667 84.6019 7.6C85.9352 6.61333 87.3485 5.85333 88.8419 5.32C90.3352 4.76 91.8685 4.48 93.4419 4.48C95.2819 4.48 96.7085 4.86667 97.7219 5.64C98.7619 6.41333 99.2819 7.49333 99.2819 8.88C99.2819 9.41333 99.2019 9.96 99.0419 10.52C98.9085 11.08 98.6952 11.64 98.4019 12.2C98.1352 12.7333 97.8152 13.2533 97.4419 13.76C97.0685 14.2667 96.6552 14.7067 96.2019 15.08C95.5085 14.9733 94.9085 14.6667 94.4019 14.16C93.8952 13.6267 93.5752 13.0133 93.4419 12.32C94.3752 11.5467 95.1085 10.7467 95.6419 9.92C96.2019 9.06667 96.4819 8.29333 96.4819 7.6C96.4819 6.42666 95.7485 5.84 94.2819 5.84C93.6685 5.84 93.0285 5.97333 92.3619 6.24C91.7219 6.48 91.0685 6.82666 90.4019 7.28C89.7352 7.73333 89.0819 8.28 88.4419 8.92C87.8285 9.56 87.2552 10.2667 86.7219 11.04C83.0152 16.3733 81.1619 21.8267 81.1619 27.4C81.1619 29.3733 81.4685 30.96 82.0819 32.16C82.6952 33.36 83.5085 34.0667 84.5219 34.28C85.6685 34.0133 87.1219 33.28 88.8819 32.08C90.6419 30.88 92.5619 29.32 94.6419 27.4C94.9085 27.6667 95.0685 27.9467 95.1219 28.24C94.3485 29.2533 93.5485 30.2267 92.7219 31.16C91.8952 32.0933 91.0685 32.9467 90.2419 33.72C89.4419 34.4933 88.6419 35.1733 87.8419 35.76C87.0685 36.3467 86.3485 36.8 85.6819 37.12C82.3752 37.0667 79.8685 36.12 78.1619 34.28C76.4552 32.44 75.6019 29.7333 75.6019 26.16ZM97.6681 33.32C97.6681 32.3867 97.7615 31.2933 97.9481 30.04C98.1348 28.76 98.4015 27.4 98.7481 25.96C99.1215 24.52 99.5481 23.0133 100.028 21.44C100.535 19.8667 101.095 18.2933 101.708 16.72C102.241 15.3067 102.855 13.88 103.548 12.44C104.268 11 105.041 9.58666 105.868 8.2C106.695 6.81333 107.548 5.49333 108.428 4.24C109.335 2.98667 110.241 1.84 111.148 0.799998C111.575 0.799998 112.028 0.853332 112.508 0.959999C113.015 1.06667 113.495 1.21333 113.948 1.4C114.428 1.56 114.855 1.76 115.228 2C115.628 2.24 115.948 2.48 116.188 2.72C114.188 4.77333 112.388 6.85333 110.788 8.96C109.188 11.04 107.921 13 106.988 14.84C106.481 15.8533 106.015 16.8 105.588 17.68C105.188 18.56 104.815 19.44 104.468 20.32C104.121 21.1733 103.801 22.04 103.508 22.92C103.241 23.7733 102.988 24.68 102.748 25.64C107.868 19.1067 111.668 15.84 114.148 15.84C114.841 15.84 115.588 16.0667 116.388 16.52C117.188 16.9733 117.895 17.5867 118.508 18.36C117.681 19.2667 116.828 20.36 115.948 21.64C115.068 22.92 114.255 24.2133 113.508 25.52C112.788 26.8 112.188 28 111.708 29.12C111.255 30.2133 111.028 31.0267 111.028 31.56C111.028 31.8267 111.068 32.0133 111.148 32.12C111.228 32.2 111.401 32.24 111.668 32.24C112.068 32.24 112.388 32.1867 112.628 32.08C112.868 31.9733 113.015 31.92 113.068 31.92C113.201 32.1333 113.281 32.28 113.308 32.36C113.335 32.44 113.348 32.5067 113.348 32.56C113.348 32.6667 113.188 32.8267 112.868 33.04C112.548 33.2267 112.161 33.4267 111.708 33.64C111.281 33.8267 110.855 34 110.428 34.16C110.001 34.32 109.681 34.4 109.468 34.4C109.201 34.4 108.935 34.32 108.668 34.16C108.401 34.0267 108.161 33.84 107.948 33.6C107.761 33.36 107.601 33.0933 107.468 32.8C107.361 32.5067 107.308 32.2 107.308 31.88C107.308 31.48 107.415 30.8933 107.628 30.12C107.868 29.32 108.188 28.4 108.588 27.36C108.988 26.2933 109.468 25.1333 110.028 23.88C110.588 22.6267 111.188 21.3467 111.828 20.04C111.828 19.9333 111.775 19.88 111.668 19.88C111.588 19.88 111.375 19.9867 111.028 20.2C110.708 20.4133 110.401 20.6267 110.108 20.84C109.148 21.56 108.175 22.4533 107.188 23.52C106.228 24.56 105.281 25.7067 104.348 26.96C103.441 28.2133 102.575 29.5467 101.748 30.96C100.948 32.3467 100.255 33.7467 99.6681 35.16C99.5881 35.3467 99.4681 35.52 99.3081 35.68C99.1481 35.84 99.0148 35.92 98.9081 35.92C98.8281 35.92 98.7081 35.8267 98.5481 35.64C98.4148 35.4533 98.2815 35.2133 98.1481 34.92C98.0415 34.6533 97.9348 34.3733 97.8281 34.08C97.7215 33.7867 97.6681 33.5333 97.6681 33.32ZM132.172 17.84C132.439 17.84 132.746 17.8933 133.092 18C133.466 18.08 133.799 18.2 134.092 18.36C134.386 18.4933 134.626 18.64 134.812 18.8C135.026 18.96 135.132 19.1067 135.132 19.24C134.599 20.36 134.106 21.4933 133.652 22.64C133.199 23.76 132.812 24.84 132.492 25.88C132.172 26.92 131.919 27.8933 131.732 28.8C131.572 29.7067 131.492 30.4933 131.492 31.16C131.492 31.9067 131.572 32.5333 131.732 33.04C131.892 33.52 132.159 33.8667 132.532 34.08C132.212 34.2933 131.799 34.4667 131.292 34.6C130.786 34.7333 130.332 34.8 129.932 34.8C128.492 34.8 127.772 33.8133 127.772 31.84C127.772 30.32 128.279 28.24 129.292 25.6C128.759 26.8267 128.146 27.9867 127.452 29.08C126.759 30.1467 126.052 31.0933 125.332 31.92C124.612 32.7467 123.879 33.4267 123.132 33.96C122.412 34.4667 121.746 34.7733 121.132 34.88C120.146 34.8267 119.346 34.36 118.732 33.48C118.119 32.5733 117.812 31.4267 117.812 30.04C117.812 28.5467 118.132 26.9733 118.772 25.32C119.412 23.6667 120.226 22.1333 121.212 20.72C122.226 19.3067 123.319 18.1333 124.492 17.2C125.666 16.24 126.799 15.7333 127.892 15.68C128.159 15.76 128.452 15.92 128.772 16.16C129.119 16.4 129.439 16.68 129.732 17C130.052 17.32 130.319 17.6533 130.532 18C130.746 18.32 130.866 18.6 130.892 18.84C129.826 19 128.719 19.52 127.572 20.4C126.452 21.28 125.426 22.3467 124.492 23.6C123.586 24.8267 122.839 26.1467 122.252 27.56C121.666 28.9733 121.372 30.2933 121.372 31.52C121.372 32.0267 121.559 32.3467 121.932 32.48C122.706 32.32 123.599 31.6667 124.612 30.52C125.626 29.3467 126.852 27.5467 128.292 25.12C128.559 24.64 128.852 24.1067 129.172 23.52C129.519 22.9333 129.866 22.32 130.212 21.68C130.559 21.04 130.892 20.4 131.212 19.76C131.559 19.0933 131.879 18.4533 132.172 17.84ZM138.857 18.68C138.724 18.52 138.604 18.1867 138.497 17.68C138.391 17.1467 138.337 16.6933 138.337 16.32C139.031 16.3733 139.697 16.4267 140.337 16.48C140.977 16.5067 141.564 16.5333 142.097 16.56C142.497 15.76 142.924 14.9733 143.377 14.2C143.857 13.4 144.311 12.68 144.737 12.04C145.191 11.3733 145.604 10.8133 145.977 10.36C146.377 9.90667 146.684 9.61333 146.897 9.48C147.164 9.48 147.497 9.53333 147.897 9.64C148.324 9.72 148.751 9.84 149.177 10C149.604 10.1333 149.991 10.28 150.337 10.44C150.684 10.6 150.924 10.76 151.057 10.92C150.257 11.9333 149.564 12.88 148.977 13.76C148.417 14.6133 147.804 15.6 147.137 16.72C147.671 16.72 148.204 16.7067 148.737 16.68C149.297 16.6533 149.857 16.6133 150.417 16.56C150.551 16.6933 150.657 16.8667 150.737 17.08C150.817 17.2667 150.857 17.4667 150.857 17.68C149.551 18.16 147.964 18.4267 146.097 18.48C145.431 19.76 144.831 21.04 144.297 22.32C143.791 23.5733 143.351 24.7867 142.977 25.96C142.631 27.1333 142.351 28.24 142.137 29.28C141.951 30.32 141.857 31.2533 141.857 32.08C141.857 33.2533 142.297 33.9067 143.177 34.04C143.977 33.9333 144.737 33.7333 145.457 33.44C146.177 33.1467 146.817 32.7733 147.377 32.32C147.537 32.56 147.631 32.76 147.657 32.92C147.497 33.16 147.217 33.44 146.817 33.76C146.444 34.08 146.031 34.3867 145.577 34.68C145.124 35 144.684 35.2667 144.257 35.48C143.831 35.6933 143.511 35.8133 143.297 35.84C142.631 35.8133 141.964 35.6667 141.297 35.4C140.631 35.1333 140.017 34.8 139.457 34.4C138.924 34 138.484 33.56 138.137 33.08C137.791 32.5733 137.617 32.08 137.617 31.6C137.617 30.96 137.697 30.16 137.857 29.2C138.044 28.2133 138.297 27.1467 138.617 26C138.937 24.8533 139.311 23.6533 139.737 22.4C140.164 21.1467 140.631 19.9067 141.137 18.68H138.857Z" fill="black"/>
</svg>
